<svg width="493" height="32" viewBox="0 0 493 32" fill="none" xmlns="http://www.w3.org/2000/svg">
<path d="M7.9585 7.736C9.45183 7.736 10.6465 8.104 11.5425 8.84C12.4385 9.56533 13.0838 10.5893 13.4785 11.912C13.8732 13.224 14.0705 14.7707 14.0705 16.552C14.0705 18.2587 13.8305 19.7787 13.3505 21.112C12.8705 22.4453 12.1505 23.496 11.1905 24.264C10.2305 25.0213 9.02517 25.4 7.5745 25.4C5.7505 25.4 4.28917 24.76 3.1905 23.48V31.464L0.1185 31.832V8.136H2.7585L2.9825 10.408C3.61183 9.544 4.35317 8.88267 5.2065 8.424C6.05983 7.96533 6.97717 7.736 7.9585 7.736ZM7.1745 10.152C6.29983 10.152 5.5265 10.4187 4.8545 10.952C4.1825 11.4747 3.62783 12.072 3.1905 12.744V20.904C3.61717 21.5333 4.13983 22.0293 4.7585 22.392C5.37717 22.744 6.06517 22.92 6.8225 22.92C8.14517 22.92 9.1425 22.408 9.8145 21.384C10.4865 20.3493 10.8225 18.7387 10.8225 16.552C10.8225 15.0907 10.6892 13.8907 10.4225 12.952C10.1558 12.0027 9.7505 11.2987 9.2065 10.84C8.67317 10.3813 7.99583 10.152 7.1745 10.152ZM31.738 21.128C31.738 21.8 31.8447 22.2907 32.058 22.6C32.2713 22.8987 32.6073 23.1227 33.066 23.272L32.346 25.384C31.578 25.288 30.9113 25.0587 30.346 24.696C29.7807 24.3333 29.3593 23.7787 29.082 23.032C28.474 23.8107 27.706 24.4027 26.778 24.808C25.85 25.2027 24.842 25.4 23.754 25.4C22.058 25.4 20.7193 24.92 19.738 23.96C18.7567 23 18.266 21.736 18.266 20.168C18.266 18.408 18.9487 17.0587 20.314 16.12C21.69 15.1813 23.6633 14.712 26.234 14.712H28.682V13.432C28.682 12.2693 28.3353 11.4427 27.642 10.952C26.9593 10.4613 26.0047 10.216 24.778 10.216C24.2233 10.216 23.562 10.2853 22.794 10.424C22.026 10.5627 21.21 10.7813 20.346 11.08L19.562 8.84C20.6073 8.44533 21.6047 8.16267 22.554 7.992C23.514 7.82133 24.41 7.736 25.242 7.736C27.418 7.736 29.0447 8.232 30.122 9.224C31.1993 10.2053 31.738 11.5547 31.738 13.272V21.128ZM24.618 23.096C25.4073 23.096 26.1647 22.8933 26.89 22.488C27.6153 22.0827 28.2127 21.5173 28.682 20.792V16.712H26.442C24.6607 16.712 23.3967 17.016 22.65 17.624C21.9033 18.2213 21.53 19.0427 21.53 20.088C21.53 21.0693 21.786 21.816 22.298 22.328C22.81 22.84 23.5833 23.096 24.618 23.096ZM52.4135 6.184L53.3095 8.904C52.6055 9.128 51.8482 9.272 51.0375 9.336C50.2375 9.4 49.3522 9.432 48.3815 9.432C49.3735 9.88 50.1202 10.456 50.6215 11.16C51.1228 11.864 51.3735 12.7067 51.3735 13.688C51.3735 14.7973 51.1122 15.784 50.5895 16.648C50.0775 17.512 49.3362 18.1893 48.3655 18.68C47.4055 19.1707 46.2482 19.416 44.8935 19.416C44.3602 19.416 43.9068 19.3947 43.5335 19.352C43.1708 19.2987 42.8135 19.2187 42.4615 19.112C42.2268 19.272 42.0295 19.4907 41.8695 19.768C41.7202 20.0453 41.6455 20.3387 41.6455 20.648C41.6455 21.0213 41.7948 21.3413 42.0935 21.608C42.3922 21.864 42.9735 21.992 43.8375 21.992H46.8295C47.9922 21.992 49.0268 22.1947 49.9335 22.6C50.8508 23.0053 51.5708 23.5547 52.0935 24.248C52.6162 24.9413 52.8775 25.7307 52.8775 26.616C52.8775 28.2907 52.1628 29.576 50.7335 30.472C49.3042 31.3787 47.2775 31.832 44.6535 31.832C42.7975 31.832 41.3362 31.64 40.2695 31.256C39.2135 30.872 38.4615 30.3013 38.0135 29.544C37.5762 28.7867 37.3575 27.8373 37.3575 26.696H40.1255C40.1255 27.3253 40.2482 27.8427 40.4935 28.248C40.7388 28.6533 41.1868 28.9573 41.8375 29.16C42.4882 29.3627 43.4268 29.464 44.6535 29.464C45.8695 29.464 46.8508 29.3627 47.5975 29.16C48.3442 28.9573 48.8935 28.6587 49.2455 28.264C49.5975 27.8693 49.7735 27.3893 49.7735 26.824C49.7735 26.0773 49.4375 25.5067 48.7655 25.112C48.0935 24.7173 47.2348 24.52 46.1895 24.52H43.2295C41.7148 24.52 40.6002 24.2 39.8855 23.56C39.1815 22.9093 38.8295 22.1627 38.8295 21.32C38.8295 20.7653 38.9842 20.2267 39.2935 19.704C39.6135 19.1813 40.0775 18.7227 40.6855 18.328C39.7042 17.8053 38.9788 17.1653 38.5095 16.408C38.0508 15.6507 37.8215 14.728 37.8215 13.64C37.8215 12.4773 38.1095 11.4533 38.6855 10.568C39.2722 9.68267 40.0828 8.98933 41.1175 8.488C42.1522 7.98667 43.3415 7.736 44.6855 7.736C46.0828 7.736 47.2242 7.672 48.1095 7.544C49.0055 7.40533 49.7788 7.224 50.4295 7C51.0908 6.76533 51.7522 6.49333 52.4135 6.184ZM44.7015 9.912C43.4428 9.912 42.5042 10.264 41.8855 10.968C41.2668 11.6613 40.9575 12.552 40.9575 13.64C40.9575 14.7387 41.2722 15.64 41.9015 16.344C42.5308 17.0373 43.4855 17.384 44.7655 17.384C45.8962 17.384 46.7602 17.0587 47.3575 16.408C47.9548 15.7467 48.2535 14.8133 48.2535 13.608C48.2535 12.392 47.9548 11.4747 47.3575 10.856C46.7602 10.2267 45.8748 9.912 44.7015 9.912ZM60.161 17.608C60.225 18.8453 60.4757 19.8587 60.913 20.648C61.3503 21.4267 61.921 22.0027 62.625 22.376C63.329 22.7387 64.1077 22.92 64.961 22.92C65.8037 22.92 66.577 22.792 67.281 22.536C67.985 22.28 68.6997 21.9067 69.425 21.416L70.817 23.352C70.0277 23.9813 69.1157 24.4827 68.081 24.856C67.0463 25.2187 65.9743 25.4 64.865 25.4C63.1797 25.4 61.745 25.032 60.561 24.296C59.3877 23.5493 58.4917 22.5147 57.873 21.192C57.265 19.8693 56.961 18.3333 56.961 16.584C56.961 14.888 57.265 13.3733 57.873 12.04C58.4917 10.7067 59.361 9.656 60.481 8.888C61.601 8.12 62.9343 7.736 64.481 7.736C65.9317 7.736 67.1797 8.072 68.225 8.744C69.281 9.416 70.0917 10.376 70.657 11.624C71.2223 12.8613 71.505 14.344 71.505 16.072C71.505 16.36 71.4997 16.6373 71.489 16.904C71.4783 17.1707 71.4623 17.4053 71.441 17.608H60.161ZM64.513 10.136C63.3183 10.136 62.321 10.5627 61.521 11.416C60.7317 12.2693 60.2783 13.5867 60.161 15.368H68.545C68.513 13.6613 68.1397 12.3653 67.425 11.48C66.721 10.584 65.7503 10.136 64.513 10.136ZM104.888 8.136V22.664H109.576V25H96.68V22.664H101.816V10.472H96.84V8.136H104.888ZM102.6 0.0719986C103.24 0.0719986 103.752 0.269332 104.136 0.664C104.531 1.05867 104.728 1.53867 104.728 2.104C104.728 2.69067 104.531 3.18667 104.136 3.592C103.752 3.98667 103.24 4.184 102.6 4.184C101.971 4.184 101.459 3.98667 101.064 3.592C100.68 3.18667 100.488 2.69067 100.488 2.104C100.488 1.53867 100.68 1.05867 101.064 0.664C101.459 0.269332 101.971 0.0719986 102.6 0.0719986ZM121.148 22.952C122.374 22.952 123.34 22.728 124.044 22.28C124.758 21.832 125.116 21.224 125.116 20.456C125.116 19.9653 125.02 19.544 124.828 19.192C124.646 18.84 124.262 18.52 123.676 18.232C123.1 17.944 122.225 17.6507 121.052 17.352C119.91 17.064 118.913 16.728 118.06 16.344C117.206 15.96 116.545 15.4587 116.076 14.84C115.617 14.2213 115.388 13.4213 115.388 12.44C115.388 11.48 115.654 10.648 116.188 9.944C116.732 9.24 117.494 8.696 118.476 8.312C119.468 7.928 120.62 7.736 121.932 7.736C123.318 7.736 124.524 7.92267 125.548 8.296C126.582 8.65867 127.457 9.10667 128.172 9.64L126.86 11.64C126.209 11.2027 125.494 10.8453 124.716 10.568C123.948 10.2907 123.041 10.152 121.996 10.152C120.748 10.152 119.857 10.344 119.324 10.728C118.801 11.1013 118.54 11.5973 118.54 12.216C118.54 12.6747 118.668 13.0587 118.924 13.368C119.19 13.6667 119.644 13.944 120.284 14.2C120.924 14.456 121.809 14.7387 122.94 15.048C124.038 15.3467 124.998 15.6987 125.82 16.104C126.641 16.5093 127.276 17.0427 127.724 17.704C128.182 18.3547 128.412 19.2133 128.412 20.28C128.412 21.4853 128.065 22.4667 127.372 23.224C126.678 23.9707 125.777 24.52 124.668 24.872C123.569 25.224 122.396 25.4 121.148 25.4C119.612 25.4 118.289 25.176 117.18 24.728C116.081 24.28 115.158 23.7307 114.412 23.08L116.108 21.128C116.769 21.672 117.526 22.1147 118.38 22.456C119.233 22.7867 120.156 22.952 121.148 22.952ZM156.691 8.136V20.008C156.691 21.0747 156.909 21.8427 157.347 22.312C157.784 22.7707 158.451 23 159.347 23C160.211 23 161.032 22.7493 161.811 22.248C162.589 21.7467 163.197 21.1493 163.635 20.456V8.136H166.707V25H164.067L163.843 22.776C163.203 23.6187 162.397 24.2693 161.427 24.728C160.456 25.176 159.475 25.4 158.483 25.4C156.851 25.4 155.629 24.9573 154.819 24.072C154.019 23.1867 153.619 21.96 153.619 20.392V8.136H156.691ZM172.806 25V8.136H175.446L175.67 10.408C176.363 9.544 177.206 8.88267 178.198 8.424C179.201 7.96533 180.198 7.736 181.19 7.736C182.811 7.736 184.006 8.17867 184.774 9.064C185.542 9.93867 185.926 11.16 185.926 12.728V25H182.854V14.616C182.854 13.5493 182.79 12.6853 182.662 12.024C182.545 11.352 182.294 10.8667 181.91 10.568C181.526 10.2693 180.945 10.12 180.166 10.12C179.558 10.12 178.982 10.2533 178.438 10.52C177.894 10.7867 177.403 11.1227 176.966 11.528C176.539 11.9333 176.177 12.3547 175.878 12.792V25H172.806ZM202.01 0.983999L205.082 1.352V25H202.378L202.122 22.84C201.524 23.6933 200.82 24.3333 200.01 24.76C199.199 25.1867 198.314 25.4 197.354 25.4C195.903 25.4 194.703 25.032 193.754 24.296C192.815 23.5493 192.116 22.5147 191.658 21.192C191.199 19.8693 190.97 18.3333 190.97 16.584C190.97 14.8773 191.231 13.3627 191.754 12.04C192.287 10.7067 193.044 9.656 194.026 8.888C195.018 8.12 196.212 7.736 197.61 7.736C198.538 7.736 199.364 7.90133 200.09 8.232C200.815 8.552 201.455 9.02667 202.01 9.656V0.983999ZM198.41 10.152C197.098 10.152 196.079 10.68 195.354 11.736C194.628 12.792 194.266 14.408 194.266 16.584C194.266 18.024 194.415 19.2187 194.714 20.168C195.012 21.1173 195.444 21.8213 196.01 22.28C196.575 22.7387 197.268 22.968 198.09 22.968C198.975 22.968 199.738 22.712 200.378 22.2C201.028 21.688 201.572 21.096 202.01 20.424V12.184C201.572 11.544 201.044 11.048 200.426 10.696C199.818 10.3333 199.146 10.152 198.41 10.152ZM213.661 17.608C213.725 18.8453 213.976 19.8587 214.413 20.648C214.85 21.4267 215.421 22.0027 216.125 22.376C216.829 22.7387 217.608 22.92 218.461 22.92C219.304 22.92 220.077 22.792 220.781 22.536C221.485 22.28 222.2 21.9067 222.925 21.416L224.317 23.352C223.528 23.9813 222.616 24.4827 221.581 24.856C220.546 25.2187 219.474 25.4 218.365 25.4C216.68 25.4 215.245 25.032 214.061 24.296C212.888 23.5493 211.992 22.5147 211.373 21.192C210.765 19.8693 210.461 18.3333 210.461 16.584C210.461 14.888 210.765 13.3733 211.373 12.04C211.992 10.7067 212.861 9.656 213.981 8.888C215.101 8.12 216.434 7.736 217.981 7.736C219.432 7.736 220.68 8.072 221.725 8.744C222.781 9.416 223.592 10.376 224.157 11.624C224.722 12.8613 225.005 14.344 225.005 16.072C225.005 16.36 225 16.6373 224.989 16.904C224.978 17.1707 224.962 17.4053 224.941 17.608H213.661ZM218.013 10.136C216.818 10.136 215.821 10.5627 215.021 11.416C214.232 12.2693 213.778 13.5867 213.661 15.368H222.045C222.013 13.6613 221.64 12.3653 220.925 11.48C220.221 10.584 219.25 10.136 218.013 10.136ZM230.529 25V22.728H233.089V10.408H230.529V8.136H235.441L236.001 12.088C236.641 10.6907 237.425 9.61867 238.353 8.872C239.291 8.11467 240.507 7.736 242.001 7.736C242.491 7.736 242.923 7.77333 243.297 7.848C243.681 7.92267 244.07 8.01867 244.465 8.136L243.553 10.824C243.201 10.7173 242.881 10.6427 242.593 10.6C242.305 10.5573 241.974 10.536 241.601 10.536C240.331 10.536 239.243 10.9947 238.337 11.912C237.43 12.8293 236.705 14.1787 236.161 15.96V22.728H239.585V25H230.529ZM241.617 14.056V10.184L241.969 8.136H244.465L243.985 14.056H241.617ZM276.584 22.808C277.405 22.808 278.168 22.6693 278.872 22.392C279.586 22.1147 280.253 21.7627 280.872 21.336L282.344 23.336C281.608 23.9653 280.717 24.4667 279.672 24.84C278.626 25.2133 277.581 25.4 276.536 25.4C274.84 25.4 273.389 25.0373 272.184 24.312C270.989 23.5867 270.077 22.568 269.448 21.256C268.818 19.944 268.504 18.408 268.504 16.648C268.504 14.9413 268.818 13.416 269.448 12.072C270.088 10.728 271.01 9.672 272.216 8.904C273.421 8.12533 274.877 7.736 276.584 7.736C277.693 7.736 278.722 7.90667 279.672 8.248C280.632 8.57867 281.512 9.06933 282.312 9.72L280.856 11.72C280.162 11.24 279.464 10.8773 278.76 10.632C278.056 10.376 277.336 10.248 276.6 10.248C275.192 10.248 274.04 10.7707 273.144 11.816C272.248 12.8613 271.8 14.472 271.8 16.648C271.8 18.0987 272.002 19.2773 272.408 20.184C272.824 21.0907 273.394 21.7573 274.12 22.184C274.845 22.6 275.666 22.808 276.584 22.808ZM294.507 7.736C296.118 7.736 297.467 8.09867 298.555 8.824C299.654 9.54933 300.48 10.5733 301.035 11.896C301.6 13.208 301.883 14.76 301.883 16.552C301.883 18.2907 301.595 19.8267 301.019 21.16C300.454 22.4827 299.622 23.5227 298.523 24.28C297.424 25.0267 296.075 25.4 294.475 25.4C292.875 25.4 291.52 25.0373 290.411 24.312C289.312 23.5867 288.48 22.5627 287.915 21.24C287.35 19.9173 287.067 18.3653 287.067 16.584C287.067 14.8347 287.35 13.2987 287.915 11.976C288.491 10.6427 289.334 9.60267 290.443 8.856C291.552 8.10933 292.907 7.736 294.507 7.736ZM294.507 10.184C293.12 10.184 292.075 10.7067 291.371 11.752C290.667 12.7867 290.315 14.3973 290.315 16.584C290.315 18.7493 290.662 20.3547 291.355 21.4C292.048 22.4347 293.088 22.952 294.475 22.952C295.862 22.952 296.902 22.4347 297.595 21.4C298.288 20.3547 298.635 18.7387 298.635 16.552C298.635 14.376 298.288 12.7707 297.595 11.736C296.912 10.7013 295.883 10.184 294.507 10.184ZM307.119 25V8.136H309.759L309.983 10.408C310.676 9.544 311.519 8.88267 312.51 8.424C313.513 7.96533 314.511 7.736 315.503 7.736C317.124 7.736 318.319 8.17867 319.087 9.064C319.855 9.93867 320.239 11.16 320.239 12.728V25H317.167V14.616C317.167 13.5493 317.103 12.6853 316.975 12.024C316.857 11.352 316.607 10.8667 316.223 10.568C315.839 10.2693 315.257 10.12 314.479 10.12C313.871 10.12 313.295 10.2533 312.751 10.52C312.207 10.7867 311.716 11.1227 311.279 11.528C310.852 11.9333 310.489 12.3547 310.191 12.792V25H307.119ZM332.21 22.952C333.437 22.952 334.402 22.728 335.106 22.28C335.821 21.832 336.178 21.224 336.178 20.456C336.178 19.9653 336.082 19.544 335.89 19.192C335.709 18.84 335.325 18.52 334.738 18.232C334.162 17.944 333.287 17.6507 332.114 17.352C330.973 17.064 329.975 16.728 329.122 16.344C328.269 15.96 327.607 15.4587 327.138 14.84C326.679 14.2213 326.45 13.4213 326.45 12.44C326.45 11.48 326.717 10.648 327.25 9.944C327.794 9.24 328.557 8.696 329.538 8.312C330.53 7.928 331.682 7.736 332.994 7.736C334.381 7.736 335.586 7.92267 336.61 8.296C337.645 8.65867 338.519 9.10667 339.234 9.64L337.922 11.64C337.271 11.2027 336.557 10.8453 335.778 10.568C335.01 10.2907 334.103 10.152 333.058 10.152C331.81 10.152 330.919 10.344 330.386 10.728C329.863 11.1013 329.602 11.5973 329.602 12.216C329.602 12.6747 329.73 13.0587 329.986 13.368C330.253 13.6667 330.706 13.944 331.346 14.2C331.986 14.456 332.871 14.7387 334.002 15.048C335.101 15.3467 336.061 15.6987 336.882 16.104C337.703 16.5093 338.338 17.0427 338.786 17.704C339.245 18.3547 339.474 19.2133 339.474 20.28C339.474 21.4853 339.127 22.4667 338.434 23.224C337.741 23.9707 336.839 24.52 335.73 24.872C334.631 25.224 333.458 25.4 332.21 25.4C330.674 25.4 329.351 25.176 328.242 24.728C327.143 24.28 326.221 23.7307 325.474 23.08L327.17 21.128C327.831 21.672 328.589 22.1147 329.442 22.456C330.295 22.7867 331.218 22.952 332.21 22.952ZM359.19 24.136C358.592 24.52 357.872 24.824 357.03 25.048C356.187 25.2827 355.344 25.4 354.502 25.4C352.624 25.4 351.184 24.9093 350.182 23.928C349.19 22.9467 348.694 21.672 348.694 20.104V10.44H344.87V8.136H348.694V4.328L351.766 3.96V8.136H357.526L357.174 10.44H351.766V20.072C351.766 21 352 21.6987 352.47 22.168C352.95 22.6373 353.744 22.872 354.854 22.872C355.483 22.872 356.059 22.7973 356.582 22.648C357.104 22.4987 357.59 22.3067 358.038 22.072L359.19 24.136ZM364.841 25V22.728H367.401V10.408H364.841V8.136H369.753L370.313 12.088C370.953 10.6907 371.737 9.61867 372.665 8.872C373.604 8.11467 374.82 7.736 376.313 7.736C376.804 7.736 377.236 7.77333 377.609 7.848C377.993 7.92267 378.382 8.01867 378.777 8.136L377.865 10.824C377.513 10.7173 377.193 10.6427 376.905 10.6C376.617 10.5573 376.286 10.536 375.913 10.536C374.644 10.536 373.556 10.9947 372.649 11.912C371.742 12.8293 371.017 14.1787 370.473 15.96V22.728H373.897V25H364.841ZM375.929 14.056V10.184L376.281 8.136H378.777L378.297 14.056H375.929ZM386.941 8.136V20.008C386.941 21.0747 387.159 21.8427 387.597 22.312C388.034 22.7707 388.701 23 389.597 23C390.461 23 391.282 22.7493 392.061 22.248C392.839 21.7467 393.447 21.1493 393.885 20.456V8.136H396.957V25H394.317L394.093 22.776C393.453 23.6187 392.647 24.2693 391.677 24.728C390.706 25.176 389.725 25.4 388.733 25.4C387.101 25.4 385.879 24.9573 385.069 24.072C384.269 23.1867 383.869 21.96 383.869 20.392V8.136H386.941ZM410.896 22.808C411.717 22.808 412.48 22.6693 413.184 22.392C413.899 22.1147 414.565 21.7627 415.184 21.336L416.656 23.336C415.92 23.9653 415.029 24.4667 413.984 24.84C412.939 25.2133 411.893 25.4 410.848 25.4C409.152 25.4 407.701 25.0373 406.496 24.312C405.301 23.5867 404.389 22.568 403.76 21.256C403.131 19.944 402.816 18.408 402.816 16.648C402.816 14.9413 403.131 13.416 403.76 12.072C404.4 10.728 405.323 9.672 406.528 8.904C407.733 8.12533 409.189 7.736 410.896 7.736C412.005 7.736 413.035 7.90667 413.984 8.248C414.944 8.57867 415.824 9.06933 416.624 9.72L415.168 11.72C414.475 11.24 413.776 10.8773 413.072 10.632C412.368 10.376 411.648 10.248 410.912 10.248C409.504 10.248 408.352 10.7707 407.456 11.816C406.56 12.8613 406.112 14.472 406.112 16.648C406.112 18.0987 406.315 19.2773 406.72 20.184C407.136 21.0907 407.707 21.7573 408.432 22.184C409.157 22.6 409.979 22.808 410.896 22.808ZM435.94 24.136C435.342 24.52 434.622 24.824 433.78 25.048C432.937 25.2827 432.094 25.4 431.252 25.4C429.374 25.4 427.934 24.9093 426.932 23.928C425.94 22.9467 425.444 21.672 425.444 20.104V10.44H421.62V8.136H425.444V4.328L428.516 3.96V8.136H434.276L433.924 10.44H428.516V20.072C428.516 21 428.75 21.6987 429.22 22.168C429.7 22.6373 430.494 22.872 431.604 22.872C432.233 22.872 432.809 22.7973 433.332 22.648C433.854 22.4987 434.34 22.3067 434.788 22.072L435.94 24.136ZM450.263 8.136V22.664H454.951V25H442.055V22.664H447.191V10.472H442.215V8.136H450.263ZM447.975 0.0719986C448.615 0.0719986 449.127 0.269332 449.511 0.664C449.906 1.05867 450.103 1.53867 450.103 2.104C450.103 2.69067 449.906 3.18667 449.511 3.592C449.127 3.98667 448.615 4.184 447.975 4.184C447.346 4.184 446.834 3.98667 446.439 3.592C446.055 3.18667 445.863 2.69067 445.863 2.104C445.863 1.53867 446.055 1.05867 446.439 0.664C446.834 0.269332 447.346 0.0719986 447.975 0.0719986ZM467.195 7.736C468.805 7.736 470.155 8.09867 471.243 8.824C472.341 9.54933 473.168 10.5733 473.722 11.896C474.288 13.208 474.571 14.76 474.571 16.552C474.571 18.2907 474.283 19.8267 473.707 21.16C473.141 22.4827 472.309 23.5227 471.211 24.28C470.112 25.0267 468.763 25.4 467.163 25.4C465.563 25.4 464.208 25.0373 463.099 24.312C462 23.5867 461.168 22.5627 460.603 21.24C460.037 19.9173 459.755 18.3653 459.755 16.584C459.755 14.8347 460.037 13.2987 460.603 11.976C461.179 10.6427 462.021 9.60267 463.131 8.856C464.24 8.10933 465.595 7.736 467.195 7.736ZM467.195 10.184C465.808 10.184 464.763 10.7067 464.059 11.752C463.355 12.7867 463.003 14.3973 463.003 16.584C463.003 18.7493 463.349 20.3547 464.043 21.4C464.736 22.4347 465.776 22.952 467.163 22.952C468.549 22.952 469.589 22.4347 470.283 21.4C470.976 20.3547 471.323 18.7387 471.323 16.552C471.323 14.376 470.976 12.7707 470.283 11.736C469.6 10.7013 468.571 10.184 467.195 10.184ZM479.806 25V8.136H482.446L482.67 10.408C483.363 9.544 484.206 8.88267 485.198 8.424C486.201 7.96533 487.198 7.736 488.19 7.736C489.811 7.736 491.006 8.17867 491.774 9.064C492.542 9.93867 492.926 11.16 492.926 12.728V25H489.854V14.616C489.854 13.5493 489.79 12.6853 489.662 12.024C489.545 11.352 489.294 10.8667 488.91 10.568C488.526 10.2693 487.945 10.12 487.166 10.12C486.558 10.12 485.982 10.2533 485.438 10.52C484.894 10.7867 484.403 11.1227 483.966 11.528C483.539 11.9333 483.177 12.3547 482.878 12.792V25H479.806Z" fill="#34495E"/>
</svg>
