<svg width="26" height="19" viewBox="0 0 26 19" fill="none" xmlns="http://www.w3.org/2000/svg">
<path d="M4 18.5L2.53409 18.5L0 16L5.90909 1.04541H8.09091L12 16L9.5 18.5L8.09091 18.5L7.06818 3.80677H6.93182L4 18.5ZM3.5 11.6818H12V13.5568H3.5V11.6818Z" fill="#1ABC9C"/>
<path d="M24.7841 4.72692L22.5256 5.36612C22.3835 4.9897 22.174 4.62393 21.897 4.26882C21.6271 3.9066 21.2578 3.60831 20.7891 3.37393C20.3203 3.13956 19.7202 3.02237 18.9887 3.02237C17.9872 3.02237 17.1527 3.25319 16.4851 3.71484C15.8246 4.16939 15.4943 4.74822 15.4943 5.45135C15.4943 6.07635 15.7216 6.56995 16.1762 6.93217C16.6307 7.29439 17.3409 7.59623 18.3068 7.83771L20.7358 8.4343C22.1989 8.78941 23.2891 9.33274 24.0064 10.0643C24.7237 10.7887 25.0824 11.7227 25.0824 12.8661C25.0824 13.8036 24.8125 14.6417 24.2727 15.3803C23.7401 16.119 22.9943 16.7013 22.0355 17.1275C21.0767 17.5536 19.9617 17.7667 18.6904 17.7667C17.0213 17.7667 15.6399 17.4045 14.5462 16.68C13.4524 15.9556 11.9929 13.7528 11.7017 12.3608L13.3208 11.5664C13.548 12.4471 15.5121 14.4499 16.1442 14.8903C16.7834 15.3306 17.6179 15.5508 18.6477 15.5508C19.8196 15.5508 20.75 15.3022 21.4389 14.805C22.135 14.3008 22.483 13.6971 22.483 12.994C22.483 12.4258 22.2841 11.9499 21.8864 11.5664C21.4887 11.1758 20.8779 10.8846 20.054 10.6928L17.3267 10.0536C15.8281 9.69851 14.7273 9.14808 14.0242 8.40234C13.3281 7.6495 12.9801 6.70845 12.9801 5.57919C12.9801 4.65589 13.2394 3.83913 13.7578 3.1289C14.2834 2.41868 14.9972 1.86115 15.8992 1.45632C16.8083 1.05149 17.8381 0.849075 18.9887 0.849075C20.608 0.849075 21.8793 1.20419 22.8026 1.91441C23.733 2.62464 24.3935 3.56214 24.7841 4.72692Z" fill="#1ABC9C"/>
</svg>
