<svg width="59" height="59" viewBox="0 0 59 59" fill="none" xmlns="http://www.w3.org/2000/svg">
<path d="M49.3203 25.8125H33.1875C31.7205 25.8125 30.3136 25.2297 29.2763 24.1924C28.239 23.1551 27.6563 21.7482 27.6562 20.2812V4.14844C27.6562 4.02619 27.6077 3.90895 27.5212 3.82251C27.4348 3.73606 27.3176 3.6875 27.1953 3.6875H16.5938C14.6378 3.6875 12.7619 4.46451 11.3788 5.84759C9.99576 7.23067 9.21875 9.10653 9.21875 11.0625V47.9375C9.21875 49.8935 9.99576 51.7693 11.3788 53.1524C12.7619 54.5355 14.6378 55.3125 16.5938 55.3125H42.4062C44.3622 55.3125 46.2381 54.5355 47.6212 53.1524C49.0042 51.7693 49.7812 49.8935 49.7812 47.9375V26.2734C49.7812 26.1512 49.7327 26.0339 49.6462 25.9475C49.5598 25.8611 49.4426 25.8125 49.3203 25.8125ZM38.7188 44.25H20.2812C19.7923 44.25 19.3233 44.0557 18.9775 43.71C18.6318 43.3642 18.4375 42.8952 18.4375 42.4062C18.4375 41.9173 18.6318 41.4483 18.9775 41.1025C19.3233 40.7568 19.7923 40.5625 20.2812 40.5625H38.7188C39.2077 40.5625 39.6767 40.7568 40.0225 41.1025C40.3682 41.4483 40.5625 41.9173 40.5625 42.4062C40.5625 42.8952 40.3682 43.3642 40.0225 43.71C39.6767 44.0557 39.2077 44.25 38.7188 44.25ZM38.7188 35.0312H20.2812C19.7923 35.0312 19.3233 34.837 18.9775 34.4912C18.6318 34.1455 18.4375 33.6765 18.4375 33.1875C18.4375 32.6985 18.6318 32.2295 18.9775 31.8838C19.3233 31.538 19.7923 31.3438 20.2812 31.3438H38.7188C39.2077 31.3438 39.6767 31.538 40.0225 31.8838C40.3682 32.2295 40.5625 32.6985 40.5625 33.1875C40.5625 33.6765 40.3682 34.1455 40.0225 34.4912C39.6767 34.837 39.2077 35.0312 38.7188 35.0312Z" fill="#34495E"/>
<path d="M48.3086 21.7321L31.7367 5.16028C31.7045 5.12825 31.6635 5.10645 31.6189 5.09764C31.5743 5.08882 31.5281 5.09339 31.4862 5.11075C31.4442 5.12811 31.4082 5.15751 31.3829 5.19523C31.3576 5.23295 31.3439 5.27732 31.3438 5.32276V20.2813C31.3438 20.7703 31.538 21.2393 31.8838 21.5851C32.2295 21.9308 32.6985 22.1251 33.1875 22.1251H48.1461C48.1915 22.1249 48.2359 22.1113 48.2736 22.0859C48.3113 22.0606 48.3407 22.0247 48.3581 21.9827C48.3755 21.9407 48.38 21.8945 48.3712 21.8499C48.3624 21.8053 48.3406 21.7644 48.3086 21.7321Z" fill="#34495E"/>
</svg>
