<svg 
    id="logo"
    width="130" 
    height="14" 
    viewBox="0 0 130 14" 
    fill="none" 
    xmlns="http://www.w3.org/2000/svg"
>
<path fill-rule="evenodd" clip-rule="evenodd" d="M122.703 5.14846V10.1406C122.703 11.0677 122.914 11.7995 123.336 12.336C123.758 12.8672 124.424 13.1328 125.336 13.1328C125.898 13.1328 126.375 13.0417 126.766 12.8594C126.946 12.7751 127.121 12.6703 127.291 12.5448C127.488 12.3989 127.677 12.2251 127.859 12.0235H127.891V12.6485C127.891 12.7108 127.899 12.7649 127.916 12.8106C127.961 12.9369 128.07 13 128.242 13H128.898C129.133 13 129.25 12.8828 129.25 12.6485V5.14846C129.25 4.91409 129.133 4.7969 128.898 4.7969H128.227C127.992 4.7969 127.875 4.91409 127.875 5.14846V9.43752C127.875 10.4167 127.701 11.1094 127.352 11.5156C127.003 11.9167 126.5 12.1172 125.844 12.1172C125.344 12.1172 124.924 11.9818 124.586 11.711C124.247 11.4349 124.078 10.7865 124.078 9.76565V5.14846C124.078 4.91409 123.961 4.7969 123.727 4.7969H123.055C122.82 4.7969 122.703 4.91409 122.703 5.14846ZM124.964 11.2448C124.932 11.2184 124.853 11.1251 124.786 10.8661C124.719 10.6099 124.678 10.2486 124.678 9.76565V5.14846C124.678 4.93879 124.625 4.67133 124.414 4.46053C124.204 4.24972 123.936 4.1969 123.727 4.1969H123.055C122.845 4.1969 122.578 4.24972 122.367 4.46053C122.156 4.67133 122.103 4.93879 122.103 5.14846V10.1406C122.103 11.1544 122.334 12.0324 122.864 12.7069L122.866 12.7091C123.438 13.4292 124.309 13.7328 125.336 13.7328C125.96 13.7328 126.529 13.632 127.019 13.4031C127.16 13.3375 127.297 13.2621 127.429 13.1776C127.463 13.2327 127.504 13.2862 127.554 13.3364C127.765 13.5472 128.033 13.6 128.242 13.6H128.898C129.108 13.6 129.376 13.5472 129.586 13.3364C129.797 13.1256 129.85 12.8581 129.85 12.6485V5.14846C129.85 4.93879 129.797 4.67133 129.586 4.46053C129.376 4.24972 129.108 4.1969 128.898 4.1969H128.227C128.017 4.1969 127.749 4.24972 127.539 4.46053C127.328 4.67133 127.275 4.93879 127.275 5.14846V9.43752C127.275 10.3767 127.101 10.8847 126.898 11.1231C126.689 11.3625 126.37 11.5172 125.844 11.5172C125.46 11.5172 125.18 11.4163 124.964 11.2448Z" fill="#1ABC9C"/>
<path fill-rule="evenodd" clip-rule="evenodd" d="M116.047 5.55471C116.047 5.737 116.164 5.82815 116.398 5.82815H117.32V10.8906C117.32 11.6042 117.464 12.1563 117.75 12.5469C118.042 12.9375 118.458 13.1328 119 13.1328C119.391 13.1328 119.781 13.0781 120.172 12.9688C120.562 12.8542 120.859 12.737 121.062 12.6172C121.167 12.5547 121.198 12.4714 121.156 12.3672L120.898 11.7656C120.846 11.6459 120.773 11.6224 120.68 11.6953C120.586 11.7683 120.414 11.8568 120.164 11.961C119.919 12.0651 119.708 12.1172 119.531 12.1172C119.302 12.1172 119.104 12.0365 118.938 11.875C118.776 11.7084 118.695 11.3516 118.695 10.8047V5.82815H120.359C120.594 5.82815 120.711 5.737 120.711 5.55471V5.07034C120.711 4.88805 120.594 4.7969 120.359 4.7969H118.695V2.80471C118.695 2.62242 118.617 2.53127 118.461 2.53127H118.188C118.125 2.53127 118.044 2.62242 117.945 2.80471L117.398 3.7969C117.346 3.89065 117.32 3.98961 117.32 4.09377V4.7969H116.398C116.164 4.7969 116.047 4.88805 116.047 5.07034V5.55471ZM116.72 4.1969H116.398C116.22 4.1969 115.976 4.22876 115.766 4.39165C115.528 4.57682 115.447 4.84081 115.447 5.07034V5.55471C115.447 5.78424 115.528 6.04823 115.766 6.2334C115.976 6.39629 116.22 6.42815 116.398 6.42815H116.72V10.8906C116.72 11.6742 116.876 12.3698 117.266 12.9017L117.269 12.9059C117.688 13.4666 118.293 13.7328 119 13.7328C119.447 13.7328 119.892 13.6701 120.334 13.5466L120.341 13.5445C120.75 13.4245 121.102 13.2908 121.367 13.134L121.371 13.1317C121.497 13.0559 121.648 12.9265 121.726 12.7185C121.807 12.503 121.775 12.2977 121.713 12.1444L121.711 12.1376L121.45 11.5293L121.449 11.5264C121.4 11.4149 121.274 11.1789 120.988 11.087C120.676 10.9866 120.425 11.1332 120.311 11.2217L120.31 11.223L120.304 11.2268C120.299 11.2302 120.292 11.2346 120.283 11.2402C120.264 11.2516 120.239 11.2659 120.206 11.283C120.139 11.3176 120.049 11.359 119.933 11.4071L119.929 11.4089C119.725 11.4958 119.598 11.5172 119.531 11.5172C119.469 11.5172 119.424 11.5031 119.377 11.4635C119.37 11.4496 119.356 11.4154 119.341 11.35C119.314 11.2308 119.295 11.0532 119.295 10.8047V6.42815H120.359C120.538 6.42815 120.782 6.39629 120.991 6.2334C121.229 6.04823 121.311 5.78424 121.311 5.55471V5.07034C121.311 4.84081 121.229 4.57682 120.991 4.39165C120.782 4.22876 120.538 4.1969 120.359 4.1969H119.295V2.80471C119.295 2.64177 119.262 2.4076 119.092 2.20916C118.907 1.99301 118.658 1.93127 118.461 1.93127H118.188C117.879 1.93127 117.688 2.13681 117.631 2.20181C117.547 2.29661 117.477 2.40994 117.419 2.5169C117.419 2.51742 117.418 2.51794 117.418 2.51846L116.874 3.50551C116.774 3.68565 116.72 3.88454 116.72 4.09377V4.1969Z" fill="#1ABC9C"/>
<path fill-rule="evenodd" clip-rule="evenodd" d="M109.305 8.77346C108.44 9.20575 108.008 9.88544 108.008 10.8125C108.008 11.5417 108.237 12.112 108.695 12.5235C109.159 12.9297 109.818 13.1328 110.672 13.1328C111.156 13.1328 111.594 13.0703 111.984 12.9453C112.191 12.8773 112.4 12.783 112.611 12.6624C112.619 12.6578 112.627 12.6532 112.635 12.6485C112.82 12.541 113.007 12.4134 113.195 12.2656H113.211V12.6485C113.211 12.779 113.242 12.8732 113.305 12.931C113.356 12.977 113.426 13 113.516 13H114.219C114.453 13 114.57 12.8828 114.57 12.6485V7.80471C114.57 6.83075 114.339 6.06513 113.875 5.50784C113.411 4.94534 112.635 4.66409 111.547 4.66409C111.146 4.66409 110.75 4.71096 110.359 4.80471C109.974 4.89325 109.651 5.00263 109.391 5.13284C109.13 5.26304 108.862 5.45836 108.586 5.71877C108.393 5.90107 108.354 6.05732 108.469 6.18752L108.875 6.65627C109 6.7969 109.133 6.78909 109.273 6.63284C109.461 6.4245 109.656 6.25523 109.859 6.12502C110.068 5.98961 110.297 5.88284 110.547 5.80471C110.797 5.72138 111.13 5.67971 111.547 5.67971C112.203 5.67971 112.641 5.8594 112.859 6.21877C113.083 6.57294 113.195 6.99482 113.195 7.4844V8.01565C111.471 8.08857 110.174 8.34117 109.305 8.77346ZM110.945 9.32815C110.497 9.43752 110.133 9.63023 109.852 9.90627C109.57 10.1771 109.43 10.4896 109.43 10.8438C109.43 11.1667 109.497 11.4271 109.633 11.625C109.768 11.8177 109.956 11.9427 110.195 12C110.435 12.0521 110.685 12.0781 110.945 12.0781C111.346 12.0781 111.727 12.0391 112.086 11.961C112.445 11.8828 112.815 11.6771 113.195 11.3438V9.03909C112.983 9.05485 112.783 9.07136 112.595 9.08861C111.853 9.15684 111.303 9.23669 110.945 9.32815ZM112.595 9.69122C111.895 9.75706 111.4 9.83124 111.094 9.90943L111.088 9.91106C110.727 9.99919 110.464 10.1461 110.272 10.3345L110.268 10.3385C110.091 10.509 110.03 10.6702 110.03 10.8438C110.03 11.0834 110.079 11.2136 110.126 11.2833C110.172 11.3475 110.23 11.3904 110.33 11.4152C110.523 11.4567 110.728 11.4781 110.945 11.4781C111.307 11.4781 111.645 11.4429 111.958 11.3747C112.139 11.3353 112.352 11.2391 112.595 11.0583V9.69122ZM112.595 7.44802C111.11 7.55084 109.91 7.80249 109.038 8.23616L109.036 8.23681C108.526 8.49183 108.111 8.83696 107.826 9.28545C107.54 9.73539 107.408 10.2525 107.408 10.8125C107.408 11.6778 107.686 12.4236 108.294 12.97L108.3 12.9747C108.909 13.5083 109.728 13.7328 110.672 13.7328C111.207 13.7328 111.708 13.6638 112.167 13.5168L112.172 13.5153C112.38 13.4468 112.586 13.3577 112.789 13.2493C112.803 13.2682 112.818 13.2868 112.834 13.3051C113.031 13.5331 113.297 13.6 113.516 13.6H114.219C114.428 13.6 114.696 13.5472 114.907 13.3364C115.117 13.1256 115.17 12.8581 115.17 12.6485V7.80471C115.17 6.73936 114.916 5.82202 114.337 5.12499C113.712 4.36793 112.724 4.06409 111.547 4.06409C111.1 4.06409 110.658 4.11631 110.222 4.22058C109.807 4.31617 109.437 4.43898 109.122 4.59618C108.796 4.75917 108.481 4.99317 108.174 5.28234C108.043 5.40636 107.89 5.58751 107.83 5.82716C107.759 6.11237 107.842 6.38245 108.017 6.58197C108.017 6.58262 108.018 6.58326 108.018 6.5839L108.422 7.04926L108.427 7.05489C108.558 7.20271 108.787 7.3735 109.104 7.35485C109.398 7.33753 109.603 7.16395 109.719 7.03422C109.877 6.8595 110.032 6.72717 110.183 6.63016L110.186 6.62809C110.346 6.5241 110.525 6.44007 110.726 6.3774L110.737 6.37392C110.901 6.31929 111.162 6.27971 111.547 6.27971C112.118 6.27971 112.289 6.43544 112.347 6.53074L112.352 6.53945C112.501 6.77495 112.59 7.07003 112.595 7.44802Z" fill="#1ABC9C"/>
<path fill-rule="evenodd" clip-rule="evenodd" d="M101.539 6.28906C101.19 6.6901 101.016 7.3802 101.016 8.35937V12.6484C101.016 12.8828 100.898 13 100.664 13H99.9922C99.7578 13 99.6406 12.8828 99.6406 12.6484V1.82031C99.6406 1.58593 99.7578 1.46874 99.9922 1.46874H100.664C100.898 1.46874 101.016 1.58593 101.016 1.82031V5.30468C101.016 5.45205 101.011 5.59941 101.002 5.74678C101.001 5.75566 101.001 5.76455 101 5.77343H101.031C101.192 5.59549 101.358 5.43924 101.531 5.30468C101.559 5.28273 101.587 5.26135 101.616 5.24055C101.78 5.12019 101.95 5.01917 102.125 4.93749C102.516 4.7552 103.003 4.66406 103.586 4.66406C104.534 4.66406 105.214 4.93229 105.625 5.46874C106.042 5.99999 106.25 6.72916 106.25 7.65624V12.6484C106.25 12.8828 106.133 13 105.898 13H105.227C104.992 13 104.875 12.8828 104.875 12.6484V8.03124C104.875 7.01041 104.706 6.36458 104.367 6.09374C104.029 5.8177 103.599 5.67968 103.078 5.67968C102.401 5.67968 101.888 5.88281 101.539 6.28906ZM106.099 5.1008C106.623 5.77066 106.85 6.64558 106.85 7.65624V12.6484C106.85 12.8581 106.797 13.1256 106.586 13.3364C106.376 13.5472 106.108 13.6 105.898 13.6H105.227C105.017 13.6 104.749 13.5472 104.539 13.3364C104.328 13.1256 104.275 12.8581 104.275 12.6484V8.03124C104.275 7.54816 104.234 7.18779 104.168 6.93336C104.099 6.67193 104.02 6.58401 103.992 6.56226L103.988 6.55878C103.776 6.38604 103.488 6.27968 103.078 6.27968C102.526 6.27968 102.2 6.44012 101.994 6.68001L101.992 6.68292C101.79 6.91424 101.616 7.41697 101.616 8.35937V12.6484C101.616 12.8581 101.563 13.1256 101.352 13.3364C101.141 13.5472 100.874 13.6 100.664 13.6H99.9922C99.7825 13.6 99.5151 13.5472 99.3043 13.3364C99.0935 13.1256 99.0406 12.8581 99.0406 12.6484V1.82031C99.0406 1.61063 99.0935 1.34317 99.3043 1.13237C99.5151 0.921569 99.7825 0.868744 99.9922 0.868744H100.664C100.874 0.868744 101.141 0.921569 101.352 1.13237C101.563 1.34317 101.616 1.61063 101.616 1.82031V4.52622C101.699 4.47847 101.784 4.43429 101.871 4.39378C102.364 4.16375 102.944 4.06406 103.586 4.06406C104.64 4.06406 105.533 4.36494 106.099 5.1008Z" fill="#1ABC9C"/>
<path fill-rule="evenodd" clip-rule="evenodd" d="M92.1757 12.8011C92.1319 12.9337 92.0395 13 91.8984 13H91.2422C91.0078 13 90.8906 12.8828 90.8906 12.6484V1.82031C90.8906 1.58593 91.0078 1.46874 91.2422 1.46874H91.9141C92.1484 1.46874 92.2656 1.58593 92.2656 1.82031V5.29687C92.2656 5.45408 92.2607 5.60882 92.2508 5.76109C92.2505 5.7652 92.2503 5.76932 92.25 5.77343H92.2656C92.4144 5.59491 92.573 5.43606 92.7414 5.29687C92.7822 5.26313 92.8236 5.23056 92.8656 5.19913C92.9839 5.11055 93.1069 5.03115 93.2344 4.96093C93.5938 4.76301 94.0729 4.66406 94.6719 4.66406C95.7135 4.66406 96.5052 5.09114 97.0469 5.94531C97.5885 6.79426 97.8594 7.77864 97.8594 8.89843C97.8594 10.0182 97.5885 11.0052 97.0469 11.8594C96.5052 12.7083 95.7135 13.1328 94.6719 13.1328C94.0729 13.1328 93.5938 13.0338 93.2344 12.8359C93.0874 12.755 92.9465 12.6618 92.8117 12.5565C92.6173 12.4046 92.4357 12.2273 92.2667 12.0247C92.2663 12.0243 92.266 12.0238 92.2656 12.0234H92.25L92.2031 12.6484C92.1992 12.7065 92.1901 12.7574 92.1757 12.8011ZM92.6561 13.1848C92.6312 13.226 92.6022 13.2663 92.5686 13.3051C92.3802 13.5225 92.1264 13.6 91.8984 13.6H91.2422C91.0325 13.6 90.7651 13.5472 90.5543 13.3364C90.3435 13.1256 90.2906 12.8581 90.2906 12.6484V1.82031C90.2906 1.61063 90.3435 1.34317 90.5543 1.13237C90.7651 0.921569 91.0325 0.868744 91.2422 0.868744H91.9141C92.1237 0.868744 92.3912 0.921569 92.602 1.13237C92.8128 1.34317 92.8656 1.61063 92.8656 1.82031V4.48032C92.8919 4.46502 92.9183 4.45003 92.9449 4.43536C93.4245 4.17127 94.0151 4.06406 94.6719 4.06406C95.9113 4.06406 96.8975 4.58985 97.5531 5.62328M95.3811 10.9363L95.383 10.9328C95.6497 10.458 95.8063 9.79354 95.8063 8.89843C95.8063 8.00332 95.6497 7.33889 95.3831 6.86403L95.3811 6.86052C95.1782 6.4934 94.8437 6.27968 94.2266 6.27968C93.8177 6.27968 93.5067 6.41274 93.2504 6.67622C93.0317 6.90108 92.8656 7.30182 92.8656 7.99999V9.79687C92.8656 10.4916 93.0301 10.8971 93.2507 11.1287C93.5058 11.3859 93.8168 11.5172 94.2266 11.5172C94.8437 11.5172 95.1782 11.3035 95.3811 10.9363ZM92.8203 11.5469C92.4505 11.1615 92.2656 10.5781 92.2656 9.79687V7.99999C92.2656 7.21874 92.4505 6.63801 92.8203 6.25781C93.1953 5.87239 93.6641 5.67968 94.2266 5.67968C95.0182 5.67968 95.5781 5.97656 95.9062 6.57031C96.2396 7.16406 96.4062 7.9401 96.4062 8.89843C96.4062 9.85676 96.2396 10.6328 95.9062 11.2266C95.5781 11.8203 95.0182 12.1172 94.2266 12.1172C93.6641 12.1172 93.1953 11.9271 92.8203 11.5469Z" fill="#1ABC9C"/>
<path fill-rule="evenodd" clip-rule="evenodd" d="M87.2969 12.6485C87.2969 12.8828 87.4141 13 87.6484 13H88.3203C88.5547 13 88.6719 12.8828 88.6719 12.6485V5.14846C88.6719 4.91409 88.5547 4.7969 88.3203 4.7969H87.6484C87.4141 4.7969 87.2969 4.91409 87.2969 5.14846V12.6485ZM87.2969 2.96096C87.2969 3.19534 87.4141 3.31252 87.6484 3.31252H88.3203C88.5547 3.31252 88.6719 3.19534 88.6719 2.96096V2.28909C88.6719 2.05471 88.5547 1.93752 88.3203 1.93752H87.6484C87.4141 1.93752 87.2969 2.05471 87.2969 2.28909V2.96096ZM86.9605 13.3364C86.7497 13.1256 86.6969 12.8581 86.6969 12.6485V5.14846C86.6969 4.93879 86.7497 4.67133 86.9605 4.46053C87.1713 4.24972 87.4388 4.1969 87.6484 4.1969H88.3203C88.53 4.1969 88.7974 4.24972 89.0082 4.46053C89.219 4.67133 89.2719 4.93879 89.2719 5.14846V12.6485C89.2719 12.8581 89.219 13.1256 89.0082 13.3364C88.7974 13.5472 88.53 13.6 88.3203 13.6H87.6484C87.4388 13.6 87.1713 13.5472 86.9605 13.3364ZM86.9605 3.6489C86.7497 3.4381 86.6969 3.17064 86.6969 2.96096V2.28909C86.6969 2.07941 86.7497 1.81195 86.9605 1.60115C87.1713 1.39035 87.4388 1.33752 87.6484 1.33752H88.3203C88.53 1.33752 88.7974 1.39035 89.0082 1.60115C89.219 1.81195 89.2719 2.07941 89.2719 2.28909V2.96096C89.2719 3.17064 89.219 3.4381 89.0082 3.6489C88.7974 3.8597 88.53 3.91252 88.3203 3.91252H87.6484C87.4388 3.91252 87.1713 3.8597 86.9605 3.6489Z" fill="#1ABC9C"/>
<path fill-rule="evenodd" clip-rule="evenodd" d="M84.9219 3.10156C85.0677 2.88801 85.0052 2.68489 84.7344 2.49218C84.349 2.21614 83.9115 1.99218 83.4219 1.82031C82.9323 1.64843 82.3568 1.56249 81.6953 1.56249C81.1172 1.56249 80.5469 1.64062 79.9844 1.79687C79.4271 1.95312 78.9557 2.27083 78.5703 2.74999C78.1849 3.22916 77.9922 3.79947 77.9922 4.46093C77.9922 4.89322 78.0365 5.27864 78.125 5.61718C78.2188 5.95051 78.4037 6.27604 78.6797 6.59374C78.9609 6.91145 79.3359 7.18229 79.8047 7.40624C80.2787 7.6302 80.8307 7.83854 81.4609 8.03124C82.0964 8.22395 82.5729 8.39322 82.8906 8.53906C83.0833 8.6276 83.2682 8.74999 83.4453 8.90624C83.6224 9.06249 83.75 9.25781 83.8281 9.49218C83.9115 9.72135 83.9531 9.97135 83.9531 10.2422C83.9531 10.6172 83.8542 10.9375 83.6563 11.2031C83.4635 11.4635 83.2057 11.6641 82.8828 11.8047C82.5599 11.9453 82.1641 12.0156 81.6953 12.0156C81.0599 12.0156 80.5182 11.9167 80.0703 11.7187C79.6276 11.5208 79.2005 11.2682 78.7891 10.9609C78.4766 10.7266 78.25 10.7109 78.1094 10.9141L77.7031 11.5C77.5729 11.6875 77.6458 11.9062 77.9219 12.1562C78.2292 12.4375 78.6927 12.6875 79.3125 12.9062C79.9323 13.125 80.7135 13.2344 81.6563 13.2344C82.4427 13.2344 83.0964 13.138 83.6172 12.9453C84.138 12.7526 84.5885 12.4088 84.9688 11.9141C85.349 11.4193 85.5391 10.8021 85.5391 10.0625C85.5391 9.65624 85.4792 9.29166 85.3594 8.96874C85.2448 8.64062 85.0807 8.33854 84.8672 8.06249C84.6589 7.78124 84.3151 7.51301 83.8359 7.25781C83.3203 6.98176 82.7162 6.74999 82.0234 6.56249C81.3359 6.36979 80.8281 6.20312 80.5 6.06249C80.2552 5.95833 80.0469 5.80989 79.875 5.61718C79.7031 5.42447 79.5964 5.23697 79.5547 5.05468C79.513 4.86718 79.4922 4.66406 79.4922 4.44531C79.4922 4.09635 79.5833 3.78906 79.7656 3.52343C79.9479 3.25781 80.1979 3.07031 80.5156 2.96093C80.8333 2.84635 81.2318 2.78906 81.7109 2.78906C82.0859 2.78906 82.4635 2.87239 82.8438 3.03906C83.2292 3.20051 83.5547 3.37499 83.8203 3.56249C84.1693 3.80729 84.4037 3.84374 84.5234 3.67187L84.9219 3.10156ZM85.0157 4.01494C84.9245 4.14578 84.7947 4.25779 84.6264 4.32214C84.4629 4.38466 84.3018 4.3875 84.1656 4.3663C83.9115 4.32678 83.6746 4.19318 83.4757 4.05369L83.4743 4.05268C83.2527 3.89628 82.9679 3.74157 82.6119 3.59246L82.6028 3.58865L82.6029 3.58858C82.2904 3.45162 81.9945 3.38906 81.7109 3.38906C81.2745 3.38906 80.9505 3.44192 80.7192 3.52535L80.711 3.52831L80.7109 3.52825C80.5093 3.59768 80.3666 3.70816 80.2603 3.86294C80.1524 4.02025 80.0922 4.20697 80.0922 4.44531C80.0922 4.62514 80.1092 4.78332 80.1399 4.92208C80.1523 4.97545 80.1948 5.07427 80.3228 5.21781C80.434 5.34253 80.5689 5.43977 80.7349 5.5104L80.7364 5.511C81.0264 5.63533 81.5023 5.79324 82.183 5.98409C82.909 6.18078 83.5563 6.42752 84.1191 6.72884C84.1187 6.72864 84.1184 6.72844 84.118 6.72824M84.1191 6.72884C84.6351 7.00376 85.063 7.32123 85.3455 7.70015C85.5954 8.02429 85.7887 8.38007 85.9239 8.76547C86.0711 9.1645 86.1391 9.59962 86.1391 10.0625C86.1391 10.9089 85.9195 11.6615 85.4445 12.2796C85.0042 12.8526 84.4649 13.2714 83.8254 13.508C83.2164 13.7333 82.4866 13.8344 81.6563 13.8344C80.6725 13.8344 79.818 13.7209 79.1128 13.472C78.4566 13.2404 77.909 12.9574 77.5179 12.5998C77.5183 12.6002 77.5187 12.6006 77.5191 12.601M77.21 11.1581C77.036 11.409 76.9954 11.7079 77.091 11.9944C77.1741 12.2437 77.346 12.444 77.5179 12.5998M77.2103 11.1578L77.21 11.1581ZM77.2103 11.1578L77.6161 10.5725C77.6161 10.5724 77.6162 10.5724 77.6162 10.5723C77.6163 10.5722 77.6163 10.5722 77.6163 10.5722C77.7943 10.3154 78.0804 10.151 78.4261 10.1749C78.7111 10.1945 78.9591 10.3385 79.149 10.4809C79.5264 10.7627 79.9147 10.9919 80.314 11.1705C80.6663 11.3259 81.1203 11.4156 81.6953 11.4156C82.1075 11.4156 82.4165 11.3533 82.6433 11.2546C82.8784 11.1522 83.0492 11.0148 83.1739 10.8462L83.1751 10.8446C83.2858 10.696 83.3531 10.5058 83.3531 10.2422C83.3531 10.0336 83.3212 9.85381 83.2643 9.69723L83.2615 9.68961L83.2589 9.68192C83.2126 9.54311 83.1423 9.43909 83.0483 9.35615C82.9102 9.2343 82.774 9.14576 82.6401 9.08426C82.3601 8.95575 81.9148 8.79586 81.2868 8.60542L81.2855 8.60502C80.6343 8.40589 80.0541 8.18772 79.5483 7.94873L79.546 7.94763C79.0206 7.69659 78.5755 7.38121 78.2304 6.99145L78.2267 6.98728C77.9049 6.61683 77.6698 6.21462 77.5474 5.77963L77.5444 5.76902L77.5445 5.769C77.4404 5.37088 77.3922 4.93296 77.3922 4.46093C77.3922 3.67377 77.6249 2.96802 78.1028 2.37394C78.5614 1.80381 79.137 1.41131 79.8224 1.21915L79.8238 1.21876C80.4381 1.04813 81.0624 0.962494 81.6953 0.962494C82.4067 0.962494 83.0524 1.05469 83.6206 1.25418C84.1588 1.44313 84.6479 1.69226 85.0837 2.00439C85.2694 2.13679 85.4716 2.33222 85.5578 2.6126C85.6545 2.92667 85.5686 3.21854 85.4174 3.43993L85.4138 3.4452L85.0157 4.01494" fill="#1ABC9C"/>
<path fill-rule="evenodd" clip-rule="evenodd" d="M66.7656 12.6485C66.7656 12.8828 66.8828 13 67.1172 13H67.7891C68.0234 13 68.1406 12.8828 68.1406 12.6485V8.75002C68.1406 7.80211 68.3385 7.05471 68.7344 6.50784C69.1302 5.95575 69.6328 5.67971 70.2422 5.67971C70.4036 5.67971 70.5755 5.69794 70.7578 5.7344C70.8672 5.75523 70.9349 5.71877 70.9609 5.62502L71.1406 4.9844C71.1719 4.87502 71.1276 4.7969 71.0078 4.75002C70.8724 4.69273 70.638 4.66409 70.3047 4.66409C69.7995 4.66409 69.3776 4.78388 69.0391 5.02346C68.9298 5.10081 68.8251 5.19011 68.725 5.29135C68.5151 5.50369 68.3255 5.76856 68.1562 6.08596H68.125V5.14846C68.125 5.119 68.1231 5.0914 68.1194 5.06564C68.0937 4.88648 67.9784 4.7969 67.7734 4.7969H67.1172C66.8828 4.7969 66.7656 4.91409 66.7656 5.14846V12.6485ZM68.5837 4.61468C68.5505 4.5612 68.5102 4.50935 68.4614 4.46053C68.2506 4.24972 67.9831 4.1969 67.7734 4.1969H67.1172C66.9075 4.1969 66.6401 4.24972 66.4293 4.46053C66.2185 4.67133 66.1656 4.93879 66.1656 5.14846V12.6485C66.1656 12.8581 66.2185 13.1256 66.4293 13.3364C66.6401 13.5472 66.9075 13.6 67.1172 13.6H67.7891C67.9987 13.6 68.2662 13.5472 68.477 13.3364C68.6878 13.1256 68.7406 12.8581 68.7406 12.6485V8.75002C68.7406 7.87889 68.9232 7.27024 69.2204 6.85964L69.222 6.85745C69.5201 6.44162 69.8506 6.27971 70.2422 6.27971C70.3587 6.27971 70.4909 6.2929 70.6401 6.32277L70.6455 6.3238C70.7766 6.34876 70.9759 6.35821 71.1751 6.25096C71.3881 6.13626 71.4939 5.94685 71.5386 5.78706M71.539 5.78561L71.7175 5.14923ZM68.5837 4.61468C68.6194 4.58677 68.6556 4.55977 68.6925 4.5337C69.1527 4.20798 69.7029 4.06409 70.3047 4.06409C70.6387 4.06409 70.9781 4.08827 71.2342 4.19434C71.3672 4.24768 71.541 4.35048 71.6529 4.54797C71.7735 4.7608 71.765 4.98088 71.7183 5.14644" fill="#1ABC9C"/>
<path fill-rule="evenodd" clip-rule="evenodd" d="M58.7109 5.81252C58.0651 6.57815 57.7422 7.60679 57.7422 8.89846C57.7422 10.1901 58.0495 11.2188 58.6641 11.9844C59.2839 12.75 60.2448 13.1328 61.5469 13.1328C62.5469 13.1328 63.2786 12.9662 63.7422 12.6328C64.2109 12.2995 64.4948 12.0573 64.5938 11.9063C64.7135 11.724 64.7135 11.5808 64.5938 11.4766L64.1328 11.0781C63.9766 10.9427 63.8151 10.9844 63.6484 11.2031C63.4974 11.4011 63.2604 11.6016 62.9375 11.8047C62.6146 12.0078 62.151 12.1094 61.5469 12.1094C60.974 12.1094 60.4609 11.9141 60.0078 11.5235C59.6511 11.2118 59.4073 10.7113 59.2765 10.0219C59.2412 9.83568 59.2141 9.63568 59.1953 9.4219H64.6406C64.8542 9.4219 64.9609 9.30471 64.9609 9.07034C64.9609 7.53388 64.6302 6.41669 63.9688 5.71877C63.3125 5.01565 62.4844 4.66409 61.4844 4.66409C60.2812 4.66409 59.3568 5.0469 58.7109 5.81252ZM64.4059 5.30778C63.6314 4.4788 62.6425 4.06409 61.4844 4.06409C60.1436 4.06409 59.0352 4.49758 58.2523 5.42566C57.4914 6.32767 57.1422 7.50701 57.1422 8.89846C57.1422 10.2833 57.4724 11.4583 58.1962 12.36L58.1977 12.3619C58.9657 13.3106 60.1263 13.7328 61.5469 13.7328C62.5881 13.7328 63.474 13.5641 64.0912 13.1209C64.3326 12.9492 64.5359 12.7943 64.6961 12.6576C64.8452 12.5304 64.9963 12.3865 65.0952 12.2358M64.4059 5.30778C65.2197 6.16771 65.5609 7.4691 65.5609 9.07034C65.5609 9.2669 65.5174 9.52629 65.3244 9.7381C65.1217 9.9605 64.855 10.0219 64.6406 10.0219H59.8887C60.0065 10.5633 60.195 10.8895 60.401 11.0703C60.7501 11.3707 61.1251 11.5094 61.5469 11.5094C62.0982 11.5094 62.4314 11.4142 62.618 11.2968C62.9088 11.1139 63.0803 10.9585 63.1712 10.8395M59.9141 6.27346C59.5804 6.5906 59.3543 7.10154 59.2357 7.80627C59.2043 7.99271 59.1804 8.19271 59.1641 8.40627H63.5781C63.5722 8.1989 63.5528 7.9989 63.5199 7.80627C63.4372 7.32158 63.2691 6.88356 63.0156 6.49221C62.6615 5.94013 62.1406 5.66409 61.4531 5.66409C60.849 5.66409 60.3359 5.86721 59.9141 6.27346ZM62.9096 7.80627C62.8346 7.4369 62.7005 7.10947 62.512 6.81836L62.5106 6.81619C62.273 6.44585 61.9481 6.26409 61.4531 6.26409C60.9987 6.26409 60.6365 6.41078 60.3302 6.70565L60.3275 6.70834C60.1337 6.89253 59.9541 7.23407 59.8452 7.80627H62.9096Z" fill="#1ABC9C"/>
<path fill-rule="evenodd" clip-rule="evenodd" d="M54.0399 12.5565C53.9051 12.6618 53.7642 12.755 53.6172 12.8359C53.2578 13.0338 52.7786 13.1328 52.1797 13.1328C51.138 13.1328 50.3464 12.7083 49.8047 11.8594C49.263 11.0052 48.9922 10.0182 48.9922 8.89843C48.9922 7.77864 49.263 6.79426 49.8047 5.94531C50.3464 5.09114 51.138 4.66406 52.1797 4.66406C52.7786 4.66406 53.2578 4.76301 53.6172 4.96093C53.7447 5.03115 53.8676 5.11055 53.9859 5.19913C54.0279 5.23056 54.0693 5.26313 54.1101 5.29687C54.2786 5.43606 54.4372 5.59491 54.5859 5.77343H54.6016C54.6013 5.76932 54.601 5.7652 54.6007 5.76109C54.5909 5.60882 54.5859 5.45408 54.5859 5.29687V1.82031C54.5859 1.58593 54.7031 1.46874 54.9375 1.46874H55.6094C55.8438 1.46874 55.9609 1.58593 55.9609 1.82031V12.6484C55.9609 12.8828 55.8438 13 55.6094 13H54.9531C54.8121 13 54.7197 12.9337 54.6759 12.8011C54.6615 12.7574 54.6523 12.7065 54.6484 12.6484L54.6016 12.0234H54.5859C54.5856 12.0238 54.5852 12.0243 54.5849 12.0247C54.4159 12.2273 54.2342 12.4046 54.0399 12.5565ZM54.0234 6.25781C53.6536 5.87239 53.1875 5.67968 52.625 5.67968C51.8333 5.67968 51.2708 5.97656 50.9375 6.57031C50.6094 7.16406 50.4453 7.9401 50.4453 8.89843C50.4453 9.85676 50.6094 10.6328 50.9375 11.2266C51.2708 11.8203 51.8333 12.1172 52.625 12.1172C53.1875 12.1172 53.6536 11.9271 54.0234 11.5469C54.3984 11.1615 54.5859 10.5781 54.5859 9.79687V7.99999C54.5859 7.21874 54.3984 6.63801 54.0234 6.25781ZM51.4617 10.9347C51.6698 11.3039 52.009 11.5172 52.625 11.5172C53.0364 11.5172 53.3439 11.385 53.5933 11.1285C53.8185 10.8971 53.9859 10.4924 53.9859 9.79687V7.99999C53.9859 7.30373 53.8182 6.90419 53.5963 6.67913L53.5904 6.67324C53.3404 6.41259 53.0338 6.27968 52.625 6.27968C52.009 6.27968 51.6698 6.49295 51.4617 6.86216C51.1994 7.33781 51.0453 8.00311 51.0453 8.89843C51.0453 9.79375 51.1994 10.4591 51.4617 10.9347ZM54.1955 13.1848C54.1019 13.2481 54.0056 13.307 53.9066 13.3615C53.4271 13.6256 52.8365 13.7328 52.1797 13.7328C50.9417 13.7328 49.9553 13.2108 49.2989 12.1821L49.298 12.1807C48.689 11.2203 48.3922 10.1194 48.3922 8.89843C48.3922 7.67793 48.6887 6.57926 49.2983 5.62355C49.2984 5.6234 49.2982 5.62369 49.2983 5.62355M54.1955 13.1848C54.2204 13.226 54.2493 13.2663 54.2829 13.3051C54.4714 13.5225 54.7251 13.6 54.9531 13.6H55.6094C55.819 13.6 56.0865 13.5472 56.2973 13.3364C56.5081 13.1256 56.5609 12.8581 56.5609 12.6484V1.82031C56.5609 1.61063 56.5081 1.34317 56.2973 1.13237C56.0865 0.921569 55.819 0.868744 55.6094 0.868744H54.9375C54.7278 0.868744 54.4604 0.921569 54.2496 1.13237C54.0388 1.34317 53.9859 1.61063 53.9859 1.82031V4.48032C53.9597 4.46502 53.9333 4.45003 53.9066 4.43536C53.4271 4.17127 52.8365 4.06406 52.1797 4.06406C50.9402 4.06406 49.9539 4.58995 49.2983 5.62355" fill="#1ABC9C"/>
<path fill-rule="evenodd" clip-rule="evenodd" d="M40.625 12.6485C40.625 12.8828 40.7422 13 40.9766 13H41.6484C41.8828 13 42 12.8828 42 12.6485V8.3594C42 7.38023 42.1745 6.69013 42.5234 6.28909C42.8724 5.88284 43.3854 5.67971 44.0625 5.67971C44.5833 5.67971 45.013 5.81773 45.3516 6.09377C45.6901 6.36461 45.8594 7.01044 45.8594 8.03127V12.6485C45.8594 12.8828 45.9766 13 46.2109 13H46.8828C47.1172 13 47.2344 12.8828 47.2344 12.6485V7.65627C47.2344 6.72919 47.026 6.00002 46.6094 5.46877C46.1979 4.93232 45.5182 4.66409 44.5703 4.66409C43.987 4.66409 43.5 4.75523 43.1094 4.93752C42.9288 5.02179 42.7538 5.12664 42.5844 5.25208C42.3873 5.39801 42.1977 5.5718 42.0156 5.77346H41.9844V5.14846C41.9844 5.0861 41.9761 5.03204 41.9595 4.98627C41.9137 4.86002 41.8048 4.7969 41.6328 4.7969H40.9766C40.7422 4.7969 40.625 4.91409 40.625 5.14846V12.6485ZM42.446 4.61933C42.4122 4.56421 42.371 4.51076 42.3207 4.46053C42.1099 4.24972 41.8425 4.1969 41.6328 4.1969H40.9766C40.7669 4.1969 40.4994 4.24972 40.2886 4.46053C40.0778 4.67133 40.025 4.93879 40.025 5.14846V12.6485C40.025 12.8581 40.0778 13.1256 40.2886 13.3364C40.4994 13.5472 40.7669 13.6 40.9766 13.6H41.6484C41.8581 13.6 42.1256 13.5472 42.3364 13.3364C42.5472 13.1256 42.6 12.8581 42.6 12.6485V8.3594C42.6 7.417 42.7748 6.91427 42.9761 6.68295L42.9786 6.68004C43.1846 6.44016 43.5105 6.27971 44.0625 6.27971C44.4728 6.27971 44.7606 6.38607 44.9724 6.55881L44.9767 6.5623C45.0039 6.58404 45.0835 6.67197 45.152 6.93339C45.2187 7.18782 45.2594 7.54819 45.2594 8.03127V12.6485C45.2594 12.8581 45.3122 13.1256 45.523 13.3364C45.7338 13.5472 46.0013 13.6 46.2109 13.6H46.8828C47.0925 13.6 47.3599 13.5472 47.5707 13.3364C47.7816 13.1256 47.8344 12.8581 47.8344 12.6485V7.65627C47.8344 6.64575 47.6077 5.77094 47.0835 5.10111C46.5175 4.36505 45.6241 4.06409 44.5703 4.06409C43.9286 4.06409 43.3486 4.16378 42.8556 4.39381C42.715 4.45947 42.5784 4.53479 42.446 4.61933Z" fill="#1ABC9C"/>
<path fill-rule="evenodd" clip-rule="evenodd" d="M33.1328 8.77346C32.2682 9.20575 31.8359 9.88544 31.8359 10.8125C31.8359 11.5417 32.0651 12.112 32.5234 12.5235C32.987 12.9297 33.6458 13.1328 34.5 13.1328C34.9844 13.1328 35.4219 13.0703 35.8125 12.9453C36.0192 12.8773 36.2281 12.783 36.4391 12.6624C36.4472 12.6578 36.4553 12.6532 36.4634 12.6485C36.6485 12.541 36.8351 12.4134 37.0234 12.2656H37.0391V12.6485C37.0391 12.779 37.0706 12.8732 37.1336 12.931C37.1837 12.977 37.2537 13 37.3438 13H38.0469C38.2812 13 38.3984 12.8828 38.3984 12.6485V7.80471C38.3984 6.83075 38.1667 6.06513 37.7031 5.50784C37.2396 4.94534 36.4635 4.66409 35.375 4.66409C34.974 4.66409 34.5781 4.71096 34.1875 4.80471C33.8021 4.89325 33.4792 5.00263 33.2188 5.13284C32.9583 5.26304 32.6901 5.45836 32.4141 5.71877C32.2214 5.90107 32.1823 6.05732 32.2969 6.18752L32.7031 6.65627C32.8281 6.7969 32.9609 6.78909 33.1016 6.63284C33.2891 6.4245 33.4844 6.25523 33.6875 6.12502C33.8958 5.98961 34.125 5.88284 34.375 5.80471C34.625 5.72138 34.9583 5.67971 35.375 5.67971C36.0312 5.67971 36.4688 5.8594 36.6875 6.21877C36.9115 6.57294 37.0234 6.99482 37.0234 7.4844V8.01565C35.2995 8.08857 34.0026 8.34117 33.1328 8.77346ZM34.7734 9.32815C34.3255 9.43752 33.9609 9.63023 33.6797 9.90627C33.3984 10.1771 33.2578 10.4896 33.2578 10.8438C33.2578 11.1667 33.3255 11.4271 33.4609 11.625C33.5964 11.8177 33.7839 11.9427 34.0234 12C34.263 12.0521 34.513 12.0781 34.7734 12.0781C35.1745 12.0781 35.5547 12.0391 35.9141 11.961C36.2734 11.8828 36.6432 11.6771 37.0234 11.3438V9.03909C36.8111 9.05485 36.6111 9.07136 36.4234 9.08861C35.681 9.15684 35.131 9.23669 34.7734 9.32815ZM36.4234 9.69122C35.7228 9.75706 35.2278 9.83124 34.9221 9.90943L34.9158 9.91106C34.5547 9.99923 34.2919 10.1461 34.1 10.3345L34.0959 10.3385C33.9188 10.509 33.8578 10.6702 33.8578 10.8438C33.8578 11.0834 33.9076 11.2136 33.9541 11.2833C34.0002 11.3475 34.0582 11.3904 34.1577 11.4152C34.3509 11.4567 34.5558 11.4781 34.7734 11.4781C35.1354 11.4781 35.4727 11.4429 35.7866 11.3747C35.9674 11.3353 36.1798 11.2391 36.4234 11.0583V9.69122ZM36.4232 7.44802C34.9379 7.55084 33.7383 7.80249 32.8658 8.23616L32.8645 8.23681C32.3544 8.49183 31.9391 8.83696 31.6539 9.28545C31.3677 9.73539 31.2359 10.2525 31.2359 10.8125C31.2359 11.6778 31.5141 12.4236 32.1226 12.9699L32.128 12.9747C32.7368 13.5083 33.5564 13.7328 34.5 13.7328C35.0355 13.7328 35.5361 13.6638 35.9954 13.5168L36 13.5153C36.2081 13.4468 36.4139 13.3577 36.6174 13.2493C36.6312 13.2682 36.646 13.2868 36.6618 13.3051C36.8594 13.5331 37.1256 13.6 37.3438 13.6H38.0469C38.2565 13.6 38.524 13.5472 38.7348 13.3364C38.9456 13.1256 38.9984 12.8581 38.9984 12.6485V7.80471C38.9984 6.73998 38.7448 5.82314 38.1662 5.12626C37.5415 4.36827 36.5524 4.06409 35.375 4.06409C34.9277 4.06409 34.4859 4.11631 34.0504 4.22058C33.635 4.31617 33.2648 4.43898 32.9504 4.59618C32.6245 4.75917 32.3089 4.99317 32.0023 5.28234C31.8712 5.40636 31.7181 5.58751 31.6581 5.82716C31.5869 6.11227 31.6701 6.38225 31.8446 6.58175C31.8452 6.58246 31.8458 6.58318 31.8464 6.5839L32.2497 7.04923L32.2547 7.05489C32.3861 7.20271 32.6146 7.3735 32.9317 7.35485C33.2262 7.33753 33.4308 7.16395 33.5475 7.03422C33.7048 6.8595 33.86 6.72717 34.0113 6.63016L34.0145 6.62809C34.1745 6.5241 34.3534 6.44007 34.554 6.3774L34.5647 6.37392C34.7286 6.31929 34.9899 6.27971 35.375 6.27971C35.946 6.27971 36.117 6.43544 36.175 6.53074L36.1804 6.53945C36.3293 6.77495 36.4179 7.07003 36.4232 7.44802Z" fill="#1ABC9C"/>
<path fill-rule="evenodd" clip-rule="evenodd" d="M24.2734 12.5391C24.0599 12.8464 24.1276 13 24.4766 13H25.2422C25.4297 13 25.5677 12.9323 25.6562 12.7969L27.6797 9.63284L29.7031 12.7969C29.7917 12.9323 29.9297 13 30.1172 13H30.8828C31.2318 13 31.2995 12.8464 31.0859 12.5391L28.4219 8.67971L30.7891 5.25784C31.0026 4.95055 30.9349 4.7969 30.5859 4.7969H29.8125C29.6198 4.7969 29.4818 4.86461 29.3984 5.00002L27.6797 7.71877L25.9531 5.00002C25.8646 4.86461 25.7266 4.7969 25.5391 4.7969H24.7734C24.4245 4.7969 24.3568 4.95055 24.5703 5.25784L26.9375 8.67971L24.2734 12.5391ZM23.7804 12.1972C23.7093 12.2995 23.6374 12.4225 23.594 12.5598C23.5508 12.6962 23.518 12.9065 23.615 13.1267C23.7167 13.3575 23.9065 13.4776 24.06 13.5342C24.2054 13.5878 24.3543 13.6 24.4766 13.6H25.2422C25.5947 13.6 25.94 13.4593 26.1584 13.1252L27.6797 10.7465L29.1976 13.1202L29.2009 13.1252C29.4194 13.4593 29.7647 13.6 30.1172 13.6H30.8828C31.0051 13.6 31.154 13.5878 31.2994 13.5342C31.4528 13.4776 31.6427 13.3575 31.7444 13.1267C31.8414 12.9065 31.8086 12.6962 31.7654 12.5598C31.722 12.4225 31.65 12.2995 31.579 12.1972C31.5791 12.1974 31.5789 12.197 31.579 12.1972L29.1512 8.68008L31.2818 5.60023C31.2817 5.60036 31.2819 5.6001 31.2818 5.60023C31.3528 5.49795 31.4251 5.37453 31.4685 5.23716C31.5117 5.10073 31.5445 4.89039 31.4475 4.67018C31.3458 4.43939 31.156 4.31934 31.0025 4.26276C30.8571 4.20914 30.7082 4.1969 30.5859 4.1969H29.8125C29.464 4.1969 29.1069 4.33204 28.8897 4.68197L27.6785 6.59775L26.4596 4.67837L26.4553 4.67167C26.2369 4.33759 25.8916 4.1969 25.5391 4.1969H24.7734C24.6512 4.1969 24.5023 4.20914 24.3569 4.26276C24.2034 4.31934 24.0136 4.43939 23.9119 4.67018C23.8148 4.89039 23.8477 5.10073 23.8908 5.23716C23.9343 5.37453 24.0063 5.49757 24.0773 5.59985C24.0772 5.59972 24.0774 5.59998 24.0773 5.59985L26.2082 8.68008L23.7804 12.1972C23.7805 12.197 23.7802 12.1974 23.7804 12.1972Z" fill="#1ABC9C"/>
<path fill-rule="evenodd" clip-rule="evenodd" d="M16.8516 5.81252C16.2057 6.57815 15.8828 7.60679 15.8828 8.89846C15.8828 10.1901 16.1901 11.2188 16.8047 11.9844C17.4245 12.75 18.3854 13.1328 19.6875 13.1328C20.6875 13.1328 21.4193 12.9662 21.8828 12.6328C22.3516 12.2995 22.6354 12.0573 22.7344 11.9063C22.8542 11.724 22.8542 11.5808 22.7344 11.4766L22.2734 11.0781C22.1172 10.9427 21.9557 10.9844 21.7891 11.2031C21.638 11.4011 21.401 11.6016 21.0781 11.8047C20.7552 12.0078 20.2917 12.1094 19.6875 12.1094C19.1146 12.1094 18.6016 11.9141 18.1484 11.5235C17.7917 11.2118 17.5479 10.7113 17.4172 10.0219C17.3818 9.83568 17.3548 9.63568 17.3359 9.4219H22.7812C22.9948 9.4219 23.1016 9.30471 23.1016 9.07034C23.1016 7.53388 22.7708 6.41669 22.1094 5.71877C21.4531 5.01565 20.625 4.66409 19.625 4.66409C18.4219 4.66409 17.4974 5.0469 16.8516 5.81252ZM22.5465 5.30778C21.772 4.4788 20.7831 4.06409 19.625 4.06409C18.2842 4.06409 17.1758 4.49758 16.3929 5.42566C15.6321 6.32767 15.2828 7.50701 15.2828 8.89846C15.2828 10.2833 15.613 11.4583 16.3368 12.36L16.3383 12.3619C17.1063 13.3106 18.2669 13.7328 19.6875 13.7328C20.7286 13.7328 21.6144 13.5641 22.2316 13.121C22.4731 12.9493 22.6765 12.7943 22.8367 12.6576C22.986 12.5303 23.1371 12.3863 23.236 12.2354M22.5465 5.30778C23.3603 6.16771 23.7016 7.4691 23.7016 9.07034C23.7016 9.2669 23.658 9.52629 23.465 9.7381C23.2624 9.9605 22.9956 10.0219 22.7812 10.0219H18.0293C18.1472 10.5634 18.3357 10.8897 18.5419 11.0704C18.8908 11.3707 19.2658 11.5094 19.6875 11.5094C20.2389 11.5094 20.5721 11.4142 20.7587 11.2968C21.0498 11.1137 21.2213 10.9581 21.3121 10.8391C21.4283 10.6867 21.6134 10.497 21.8852 10.4269C22.203 10.3449 22.4791 10.4626 22.6658 10.6242M22.6658 10.6242L23.1281 11.0238C23.3031 11.176 23.4242 11.3968 23.4242 11.6621C23.4242 11.8968 23.3288 12.0941 23.236 12.2354M18.0547 6.27346C17.7211 6.5906 17.4949 7.10154 17.3763 7.80627C17.3449 7.99271 17.321 8.19271 17.3047 8.40627H21.7188C21.7128 8.1989 21.6934 7.9989 21.6605 7.80627C21.5778 7.32158 21.4097 6.88356 21.1562 6.49221C20.8021 5.94013 20.2812 5.66409 19.5938 5.66409C18.9896 5.66409 18.4766 5.86721 18.0547 6.27346ZM21.0503 7.80627C20.9752 7.4369 20.8412 7.10947 20.6526 6.81836L20.6512 6.81619C20.4137 6.44585 20.0887 6.26409 19.5938 6.26409C19.1393 6.26409 18.7771 6.41078 18.4709 6.70565L18.4681 6.70834C18.2743 6.89253 18.0947 7.23407 17.9858 7.80627H21.0503Z" fill="#1ABC9C"/>
<path fill-rule="evenodd" clip-rule="evenodd" d="M12.398 13.3364C12.1872 13.1256 12.1344 12.8581 12.1344 12.6484V2.89843C12.1344 2.68958 12.1877 2.49103 12.2875 2.31115C12.2876 2.31082 12.2878 2.3105 12.288 2.31017L12.8321 1.32311C12.8324 1.32255 12.8327 1.32199 12.833 1.32143C12.8911 1.21451 12.9611 1.10123 13.045 1.00647C13.1026 0.941466 13.293 0.735931 13.6016 0.735931H13.875C14.0718 0.735931 14.3211 0.797668 14.5063 1.01382C14.6764 1.21226 14.7094 1.44643 14.7094 1.60937V12.6484C14.7094 12.8581 14.6566 13.1256 14.4457 13.3364C14.2349 13.5472 13.9675 13.6 13.7578 13.6H13.0859C12.8763 13.6 12.6088 13.5472 12.398 13.3364ZM13.3594 1.60937L12.8125 2.60156C12.7604 2.69531 12.7344 2.79426 12.7344 2.89843V12.6484C12.7344 12.8828 12.8516 13 13.0859 13H13.7578C13.9922 13 14.1094 12.8828 14.1094 12.6484V1.60937C14.1094 1.42708 14.0312 1.33593 13.875 1.33593H13.6016C13.5391 1.33593 13.4583 1.42708 13.3594 1.60937Z" fill="#1ABC9C"/>
<path fill-rule="evenodd" clip-rule="evenodd" d="M0.994008 12.2708L4.88389 2.06178C4.88403 2.06142 4.88417 2.06106 4.8843 2.0607C5.03923 1.65051 5.3651 1.1969 5.96094 1.1969H7.05469C7.65056 1.1969 7.97643 1.65057 8.13135 2.06077C8.13148 2.06111 8.1316 2.06144 8.13173 2.06178L12.022 12.2719C12.0954 12.4656 12.1888 12.7863 12.0612 13.0983C11.8927 13.5102 11.4982 13.6 11.25 13.6H10.4531C10.2212 13.6 9.98103 13.5454 9.76789 13.4003C9.55437 13.255 9.4154 13.0513 9.33121 12.8341L9.3293 12.8292L8.49929 10.6313H4.51634L3.68444 12.8341C3.60025 13.0513 3.46125 13.255 3.24773 13.4003C3.0346 13.5454 2.79446 13.6 2.5625 13.6H1.76562C1.51739 13.6 1.12295 13.5102 0.954437 13.0983C0.826819 12.7863 0.920201 12.4656 0.993592 12.2719L0.994008 12.2708ZM4.10156 10.0313H8.91406L9.89062 12.6172C9.98958 12.8724 10.1771 13 10.4531 13H11.25C11.5208 13 11.5911 12.8281 11.4609 12.4844L7.57031 2.27346C7.45052 1.95575 7.27865 1.7969 7.05469 1.7969H5.96094C5.73698 1.7969 5.5651 1.95575 5.44531 2.27346L1.55469 12.4844C1.42448 12.8281 1.49479 13 1.76562 13H2.5625C2.83854 13 3.02604 12.8724 3.125 12.6172L4.10156 10.0313ZM5.78906 5.62502L4.59375 8.75002H8.42188L7.22656 5.62502C7.11719 5.33336 7.00781 5.01044 6.89844 4.65627C6.8724 4.56773 6.84505 4.46991 6.81641 4.36282C6.7309 4.04315 6.6338 3.64082 6.52509 3.15583C6.52454 3.15338 6.52399 3.15092 6.52344 3.14846H6.49219C6.49164 3.15092 6.49109 3.15338 6.49054 3.15583C6.38208 3.63965 6.28372 4.04121 6.19546 4.36051C6.16561 4.46851 6.13691 4.5671 6.10938 4.65627C6.00521 5.01044 5.89844 5.33336 5.78906 5.62502ZM6.50698 5.39413C6.45577 5.54747 6.40374 5.69468 6.35086 5.8357L6.34948 5.83938L5.46564 8.15002H7.54998L6.66475 5.8357C6.61193 5.69485 6.55936 5.54764 6.50698 5.39413Z" fill="#1ABC9C"/>
</svg>
